<svg id="Layer_2" xmlns="http://www.w3.org/2000/svg" viewBox="0 0 200 135.97">
  <defs>
    <style>
      .cls-1{fill:#fff}
    </style>
  </defs>
  <g id="hand">
    <path class="cls-1" d="M124.19 84.83c.61-.2.92-.68.97-1.32.06-.93-.37-1.47-1.42-1.83-3.94-1.36-7.88-2.72-11.81-4.1-3.61-1.27-7-2.96-10.03-5.31-1.26-.97-2.4-2.06-3.3-3.37-1.84-2.67-1.86-5.36-.04-8.04.73-1.07 1.61-2.01 2.63-2.81 3.69-2.89 7.73-5.13 12.19-6.64 1.34-.45 2.66-.95 3.97-1.47.4-.16.78-.41 1.11-.69.69-.6.74-1.3.12-1.97-.32-.35-.74-.63-1.16-.87-1.13-.64-2.38-.99-3.64-1.29-1.82-.44-3.65-.86-5.48-1.3-.97-.24-1.89-.67-2.7-1.26-1.02-.74-1.11-1.77-.22-2.66.31-.31.66-.57 1.03-.81 1.19-.76 2.51-1.19 3.88-1.46 1.82-.36 3.65-.63 5.48-.91 2.65-.4 5.31-.77 7.96-1.14 1.96-.28 3.88-.71 5.74-1.41.61-.23 1.13-.57 1.58-1.02.67-.67.7-1.46.37-2.28-.32-.78-.92-1.11-1.78-1.13-1.62-.04-3.21.16-4.82.27-2.65.19-5.31.32-7.97.44-1.8.08-3.61.11-5.42.12-3.76.03-7.52.04-11.29.03-1.98 0-3.96-.06-5.93-.11-3.39-.09-6.78-.2-10.17-.31-2.42-.08-4.83-.18-7.24-.27-1.66-.06-3.32-.11-4.98-.18-1.07-.04-2.14-.11-3.22-.17-2-.12-3.99-.27-5.99-.38-1.71-.09-3.42-.12-5.12-.19-.83-.03-1.66-.1-2.48-.15-2.09-.14-4.19-.27-6.28-.41-.56-.04-1.12-.06-1.68-.11-.71-.05-1.37.09-1.92.55-1.03.85-1.32 1.97-.98 3.2.34 1.25 1.23 2 2.54 2.2.51.08 1.02.1 1.52.18 2.84.43 5.69.86 8.53 1.31 4.12.65 8.23 1.31 12.34 1.98 3.68.59 7.36 1.18 11.04 1.8 3.61.6 7.21 1.23 10.81 1.85 1.13.19 2.26.39 3.38.62.26.05.61 0 .73.41-.36.35-.84.34-1.28.37-1.63.1-3.26.2-4.9.26-3.1.12-6.2.24-9.3.3-3.78.07-7.57.09-11.36.12-7.47.06-14.95.1-22.42.16-1.56 0-3.13 0-4.69.04-1.64.03-2.62.84-2.86 2.43-.32 2.15.66 3.38 2.6 3.58.8.08 1.59.24 2.38.36 2.36.36 4.72.7 7.08 1.06s4.72.73 7.08 1.1c2.65.41 5.3.83 7.95 1.24 2.41.37 4.82.74 7.23 1.1 1.83.27 3.67.53 5.5.78 1.96.27 3.91.53 5.87.77 2.03.25 4.07.45 6.1.68 1.14.13 2.27.28 3.41.44.14.02.26.14.39.21 0 .05-.01.1-.02.15-.22.06-.45.15-.67.17-1.48.1-2.97.2-4.46.27-2 .1-4 .2-6 .29-2.27.1-4.53.2-6.8.29-2.17.09-4.34.18-6.51.29-2.53.13-5.06.31-7.6.42-2.95.13-5.9.22-8.85.33-1.22.05-2.44.07-3.66.16-.55.04-1.11.17-1.64.34-.78.25-1.26.84-1.47 1.59-.52 1.78.54 3.33 2.39 3.59.56.08 1.11.14 1.67.22 2.57.41 5.15.8 7.72 1.24 2.52.44 5.03.92 7.54 1.4 1.51.29 3 .64 4.51.9 2.95.52 5.91 1.01 8.86 1.51l10.81 1.83c1.66.28 3.31.57 4.97.86.33.06.67.1.85.5-.41.31-.89.28-1.33.3-.68.04-1.37.02-2.05.05-2.22.12-4.43.27-6.65.39-2.07.12-4.14.21-6.21.33-1.07.06-2.14.15-3.21.25-.97.09-1.94.23-2.91.3-1.75.12-3.51.21-5.26.32-.78.05-1.56.1-2.34.16-1.87.13-3.74.28-5.62.4-1.14.07-2.29.1-3.44.17-.29.02-.58.08-.86.17-1.1.38-1.79 1.33-1.78 2.71 0 1.09.7 2.12 1.83 2.43.37.1.76.18 1.15.21 2.09.15 4.18.29 6.28.43 2.38.16 4.77.31 7.15.47.78.05 1.56.09 2.34.17 1.7.16 3.39.39 5.09.51 2.63.18 5.26.31 7.89.45 1.95.1 3.9.2 5.85.29 2.66.11 5.32.23 7.98.3 3.88.11 7.76.2 11.64.29 1.73.04 3.47.04 5.2.06 2.22.03 4.44.08 6.67.09.43 0 .88-.07 1.29-.21l.03.02Z"/>
    <path class="cls-1" d="M116.68 15.22c1.8 1.61 3.82 2.93 5.83 4.26 3.96 2.62 7.92 5.23 11.87 7.86 1.23.81 2.26 1.84 3.18 2.98 1.07 1.32 1.12 3.12-.23 4.38-.63.59-1.36 1.11-2.11 1.53-.74.42-1.55.72-2.35 1-1.86.66-3.73 1.29-5.6 1.93-.72.25-1.4.57-1.96 1.1-.95.88-.87 2.28.2 3 .41.28.91.49 1.4.57 1.87.33 3.75.59 5.63.88 1.31.2 2.59.5 3.82.99.96.38 1.74.97 2.25 1.87.6 1.06.46 2.12-.51 2.85-.65.49-1.4.89-2.16 1.19-1.18.46-2.41.77-3.61 1.19-.99.35-1.98.7-2.91 1.17a8.292 8.292 0 0 0-3.59 3.42c-.78 1.4-.58 2.84.53 4 .25.26.52.51.81.74 1.63 1.28 3.48 2.13 5.46 2.73 1.71.52 3.46.83 5.25.9 2.21.09 4.42.34 6.65.14 2.5-.23 5.02-.31 7.5-.64 2.12-.28 4.21-.79 6.31-1.22.85-.17 1.36-.73 1.54-1.56.21-.97.46-1.93.6-2.91.29-1.96.55-3.92.75-5.88.24-2.3.4-4.61.59-6.92-.05-3.46-.55-6.84-1.62-10.13-2.03-6.22-5.51-11.48-10.52-15.75-2.89-2.46-6.1-4.44-9.52-6.07-3.65-1.73-7.36-3.34-11.07-4.96-4.16-1.81-8.37-3.49-12.42-5.51-.87-.43-1.73-.9-2.61-1.31-1.63-.77-3.1-.09-3.47 1.65-.4 1.9.1 3.65 1.24 5.2 1.43 1.94 3.05 3.71 4.85 5.32Z"/>
  </g>
  <g id="land-trust">
    <path class="cls-1" d="M45.93 122.19H44.8v11.03h6.87l.18-1.01h-5.92v-10.02zM60.33 122.19h-1.41l-4.04 11.03h1.15l1.33-3.58h4.59l1.34 3.58h1.23l-4.19-11.03Zm-2.64 6.44c.93-2.66 1.63-4.56 1.9-5.45h.01c.23.78.83 2.34 1.99 5.45h-3.9ZM75.92 126.86c0 1.8-.01 3.48.08 4.99h-.01c-.68-1.2-4.47-7.05-6.14-9.66h-1.58v11.03h1.12v-4.8c0-1.99 0-3.73-.08-5.09h.03c.75 1.23 4.65 7.41 6.23 9.89h1.47v-11.03h-1.1v4.67h-.02ZM85.89 122.19h-3.83v11.03h3.8c3.16 0 5.24-2.34 5.24-5.62s-2.12-5.4-5.21-5.4Zm-.16 10.03h-2.54v-9.03h2.54c2.92 0 4.15 2.15 4.15 4.46 0 2.63-1.36 4.58-4.15 4.58ZM99.88 123.18h3.67v10.04h1.15v-10.04h3.69v-.99h-8.51v.99zM119.28 131v-.45c0-1.9-.78-2.6-1.82-2.85 1.17-.28 1.99-1.17 1.99-2.59 0-1.72-1.18-2.92-3.42-2.92h-4.17v11.03h1.15v-5.02h2.53c2.08 0 2.57.73 2.57 2.43v.25c0 .99-.03 1.86.17 2.34h1.13c-.21-.45-.14-1.45-.14-2.21Zm-6.26-3.79v-4.04h2.78c1.63 0 2.46.73 2.46 2 0 1.36-.83 2.04-2.67 2.04h-2.57ZM131.08 128.85c0 2.75-1.3 3.51-3.06 3.51-1.51 0-3.08-.73-3.08-3.51v-6.67h-1.17v6.73c0 3.29 1.96 4.42 4.22 4.42s4.25-1.05 4.25-4.55v-6.6h-1.15v6.67ZM140.28 126.88c-2.02-.49-2.7-.94-2.7-2.05s.83-1.83 2.33-1.83c1.69 0 2.4.84 2.64 1.93h1.17c-.14-1.39-1.21-2.89-3.75-2.89s-3.57 1.34-3.57 2.88.97 2.39 3.45 3c2.36.57 2.91 1.26 2.91 2.45s-.73 2.05-2.64 2.05c-1.74 0-2.68-.81-3.01-2.21h-1.18c.23 1.58 1.33 3.14 4.12 3.14s3.91-1.39 3.91-3.08c0-1.37-.51-2.6-3.67-3.38h-.01ZM146.69 123.18h3.68v10.04h1.15v-10.04h3.68v-.99h-8.51v.99z"/>
  </g>
  <g id="five-valleys">
    <path class="cls-1" d="M39.93 113.68h1.13v-5.13h5.45v-.99h-5.45v-3.91h5.82v-.99h-6.95v11.02zM50.65 102.66h1.13v11.03h-1.13zM63.86 102.66l-2.16 5.7c-.61 1.61-1.31 3.44-1.55 4.29h-.03c-.24-.96-.88-2.7-1.48-4.36l-2.08-5.64h-1.21l4.11 11.03h1.34l4.25-11.03h-1.19ZM76 112.69h-6.17v-4.31h5.62v-.99h-5.62v-3.74h5.9v-.99H68.7v11.02h7.14l.16-.99zM90.03 113.68l4.25-11.03H93.1l-2.16 5.7c-.61 1.61-1.31 3.44-1.55 4.29h-.03c-.24-.96-.88-2.7-1.48-4.36l-2.08-5.64h-1.21l4.11 11.03h1.34-.01ZM101.07 102.66h-1.41l-4.04 11.03h1.15l1.33-3.58h4.59l1.34 3.58h1.23l-4.19-11.03Zm-2.64 6.44c.93-2.66 1.63-4.56 1.9-5.45h.01c.23.78.83 2.34 1.99 5.45h-3.9ZM110.12 102.66h-1.13v11.02h6.87l.18-.99h-5.92v-10.03zM120.7 102.66h-1.13v11.02h6.86l.17-.99h-5.9v-10.03zM137.16 103.65v-.99h-7.03v11.02h7.14l.16-.99h-6.16v-4.31h5.62v-.99h-5.62v-3.74h5.89zM145.49 113.68v-4.06c0-.14.01-.21.04-.27l4.11-6.7h-1.23c-1.13 1.85-2.95 4.91-3.43 5.8-.49-.88-2.29-3.97-3.36-5.8h-1.33l3.95 6.65c.05.09.07.18.07.28v4.09h1.17v.02ZM156.23 112.88c-1.74 0-2.68-.81-3.01-2.21h-1.18c.23 1.58 1.33 3.14 4.12 3.14s3.91-1.39 3.91-3.08c0-1.37-.51-2.6-3.67-3.38-2.02-.49-2.7-.94-2.7-2.05s.83-1.83 2.33-1.83c1.69 0 2.4.84 2.64 1.93h1.17c-.14-1.39-1.21-2.89-3.75-2.89s-3.57 1.34-3.57 2.88.97 2.39 3.45 3c2.36.57 2.91 1.26 2.91 2.45s-.73 2.05-2.64 2.05h-.01Z"/>
  </g>
</svg>
