<?xml version="1.0" encoding="utf-8"?>
<!-- Generator: Adobe Illustrator 28.0.0, SVG Export Plug-In . SVG Version: 6.00 Build 0)  -->
<svg version="1.1" id="b" xmlns="http://www.w3.org/2000/svg" xmlns:xlink="http://www.w3.org/1999/xlink" x="0px" y="0px"
	 viewBox="0 0 318.9 92.2" style="enable-background:new 0 0 318.9 92.2;" xml:space="preserve">
<style type="text/css">
	.st0{fill:#FFFFFF;}
	.st1{fill:#49A942;}
</style>
<g id="c">
	<g>
		<g id="d">
			<g>
				<path class="st0" d="M281.3,13c-0.3,1.5-0.4,5.3,1.8,4.8c2.9-0.6,2.5-0.9,4.1-2.3c1.1-0.9,3.7,1.6,0,5.7c-2,2.2-2.4,2.9-1.4,4.2
					c1.1,1.3,4,1.9,4,6c0,3.6,4.6,1,5.8-0.4c1.1-1.4,1.9-7.7,5-3.1c2.2,3.3-1.6,10.2,3,10.9c3.8,0.6,4.4,4.8,4.5,5.9
					c0,0.2,0,0.2,0,0.2c9.6-9.2,3.2-21.1,3-22.5c-0.4-2.6,1-1.6,2.7,0C306.8,9,292.9,0,276.8,0c-2.8,0-5.5,0.3-8.1,0.8
					C277,1,282.8,4.3,281.3,13L281.3,13z"/>
				<path class="st0" d="M303.3,63.6c-2.6,1-3.7-0.6-5.6,1.2c-2.1,2.1,4.6,6.1-7.8,3.3c-5.5-1.3-4.8,4.8-11,1.6
					c-1.7-4.1-1.8-6.5-0.3-9.1c1.7-3,2.3-2,1.3-5.3c-0.4-1.3,0-1.9,0.7-3.7c0.7-1.8-0.2-4.3-2.7-4.1c-3.4,0.2-3,1.7-5,3.1
					c-1.4,0.9-3.7-3.8,1.2-8.1c2.7-2.3,3.3-3.1,2.4-4.9c-0.9-1.9-2.6-1.2-3.3-3.3c-0.5-1.6,0.3-4.7-2.1-5.5c-2.7-0.8-4.8,3-6.4,4.5
					c-1.8,1.8-3.8,4.9-4.7,2.4c-1.7-4.4,6.2-11,1.3-12.8c-4.6-1.6-6.1-6.5-6.1-6.5c-12.6,9.4-6.6,17.6-7.7,19
					c-1.1,1.5-3.1-1.8-4.8-0.2c-1.3,1.2-2.5,8.8,5.6,13.7c3.1,1.8,4.1,2.3,3.3,3.4c-0.6,0.9-3,0.1-3,2.2c0.1,4,6.6,2.8,7.8,7.9
					c1.1,4.7,21.3,7.6,21.3,7.6c0,0,0.1,0,0.2,0.1l1,0.5c0.3,1.2,1.5,4.1,4.3,5.6c4.6,2.4-0.3,1.2,0.4,2.9c0.3,0.9,3.6,3.1,9.5,1.7
					c8.1-3.4,14.9-9.2,19.5-16.6C307.5,60.4,307.1,61.2,303.3,63.6L303.3,63.6z"/>
				<path class="st1" d="M277.9,70.1c-0.2-0.1-0.3-0.1-0.2-0.1c0,0-20.1-2.8-21.3-7.6c-1.2-5.1-7.7-3.9-7.8-7.9c0-2,2.4-1.3,3-2.2
					c0.7-1.1-0.3-1.6-3.3-3.4c-8.1-4.8-6.9-12.5-5.6-13.7c1.7-1.5,3.7,1.7,4.8,0.2c1.1-1.5-4.9-9.7,7.7-19c0,0,1.5,4.8,6.1,6.5
					c4.9,1.8-3,8.4-1.3,12.8c1,2.5,2.9-0.6,4.7-2.4c1.5-1.5,3.7-5.3,6.4-4.5c2.4,0.7,1.5,3.8,2.1,5.5c0.7,2.1,2.4,1.5,3.3,3.3
					c0.9,1.8,0.3,2.5-2.4,4.9c-4.9,4.3-2.6,9-1.2,8.1c2.1-1.4,1.7-2.9,5-3.1c2.5-0.1,3.4,2.3,2.7,4.1s-1.1,2.4-0.7,3.7
					c1,3.3,0.4,2.3-1.3,5.3c-1.5,2.6-1.4,5,0.3,9.1c6.2,3.2,5.5-2.8,11-1.6c12.4,2.8,5.6-1.2,7.8-3.3c1.9-1.9,3-0.2,5.6-1.2
					c3.8-2.4,4.2-3.2,9.2,0.7c4-6.5,6.4-14.1,6.4-22.3c0-7.1-1.8-13.8-4.9-19.7c-1.8-1.6-3.2-2.6-2.8,0c0.2,1.5,6.6,13.4-3,22.5
					c0,0,0-0.1,0-0.2c-0.1-1.1-0.8-5.4-4.5-5.9c-4.6-0.7-0.8-7.7-3-10.9c-3.1-4.6-3.9,1.7-5,3.1c-1.1,1.4-5.8,4-5.8,0.4
					c0-4.1-2.9-4.6-4-6c-1.1-1.3-0.6-2,1.4-4.2c3.6-4.1,1-6.6,0-5.7c-1.6,1.4-1.2,1.7-4.1,2.3c-2.2,0.5-2.1-3.3-1.8-4.8
					c1.5-8.7-4.3-12-12.6-12.2c-19.3,3.8-33.9,20.8-33.9,41.2c0,23.2,18.8,42,42,42c5.7,0,11.2-1.2,16.2-3.2
					c-5.9,1.4-9.2-0.9-9.5-1.7c-0.6-1.7,4.3-0.5-0.4-2.9c-2.8-1.4-4-4.3-4.3-5.6L277.9,70.1L277.9,70.1z"/>
				<path class="st1" d="M280.3,71.4c0,0-27.6-10.7-28.6-37.9C251.7,33.5,254.4,54.2,280.3,71.4z"/>
				<path class="st1" d="M280.1,0.1c0.8,0.1,6.7,0.9,13,4.9c2.3,2.2,5.6,7.6,0.5,18.6c0,0,6.5-8.8,4.9-14.2
					c5.5,5.5,10.1,14.2,10.3,28.1C308.8,37.4,314.9,2.7,280.1,0.1L280.1,0.1z"/>
				<path class="st1" d="M307.7,68.8c-2.1,1.3-5.5,4.3-11.1,2.5c0,0,2.2,1.7,5.7,1.6c-4.5,2.3-9.4,2.9-17,0.9c0,0,15.6,9.2,26.5-8.4
					C311.7,65.4,309,68,307.7,68.8L307.7,68.8z"/>
			</g>
			<g>
				<path class="st0" d="M13.4,31.6c0,3,0.6,3.9,2.7,3.9v0.8H7.2v-0.8c1.8,0,2.9-0.5,2.9-4V12.3H6.4c-3.4,0-4.9,1-5.1,3.6H0.5v-5.8
					h0.8c0.4,0.3,0.8,0.5,1.4,0.7C3.2,11,4,11.1,5.1,11.1h13.2c2.2,0,3.2-0.3,4-0.9H23v5.8h-0.5c-0.5-2.1-1.3-3.6-5.3-3.6h-3.8
					L13.4,31.6L13.4,31.6z"/>
				<path class="st0" d="M40.6,32.5c0,2.4,0.4,3,2.5,3v0.8H35v-0.8c2.1,0,2.6-0.5,2.6-2.5v-7.7c0-2.1-1.2-3.4-3.1-3.4
					c-1.8,0-3,0.8-4.5,3v8.5c0,1.6,0.7,2.1,2.6,2.1v0.8h-8.4v-0.8c2.3,0,2.8-0.5,2.8-3V12.3c0-2-0.6-2.3-2.8-2.3V9.2l5-0.5h0.8v14.7
					c2-2.3,3.4-3.1,5.5-3.1c2.6,0,5.2,1.7,5.2,5.4L40.6,32.5L40.6,32.5z"/>
				<path class="st0" d="M47.9,26.8c-0.1,7,4.1,8.8,6.2,8.8s3.2-0.8,5.5-3.2v1.2c-1.9,2.4-3.7,3.3-6.4,3.3c-4.9,0-8.4-3.4-8.4-8.1
					s3.4-8.4,7.8-8.4c3.6,0,7,2.9,6.7,6.5L47.9,26.8L47.9,26.8z M56.3,26c0.1-3.4-2.2-4.8-4.2-4.8c-2.6,0-4.1,1.9-4.3,4.8H56.3z"/>
				<path class="st0" d="M99.7,45.7h-1.2L70.4,11h-0.1v28c0,4,1.6,5.5,5.2,5.5v1.2H63.4v-1.2c3.3,0,4.9-1,4.9-6.8V14.4
					c0-4.5-1.2-7-5.9-7.4V5.8h10.2l25,31.1h0.1V13.5c0-5.2-1.4-6.6-4.9-6.6V5.8h12.1V7c-3.9,0-5.2,1.6-5.2,6.3
					C99.7,13.2,99.7,45.7,99.7,45.7z"/>
				<path class="st0" d="M136.6,21h8.6v1.8h-8.6v15.9c0,3.4,1.7,5.2,4.5,5.2c1.8,0,3.1-0.7,4.6-2.4l0.8,0.9
					c-2.2,2.7-4.7,4.1-7.5,4.1c-4.2,0-7.1-2.9-7.1-7.2V22.8h-4.7v-1.2c3.3-1.7,6.1-4.7,8.2-8.9h1.2L136.6,21L136.6,21z"/>
				<path class="st0" d="M173.2,41c0,2.7,0.9,3.5,4.2,3.5v1.2l-9,0.5v-4.5h-0.1c-2.4,3.2-5.3,4.8-8.6,4.8c-4.9,0-8.1-3.7-8.1-8.3
					V25.6c0-2.4-0.8-3.3-4.4-3.3v-1.2l7.9-0.8h1.2V38c0,3.5,2.2,5.6,5.6,5.6c2.4,0,4.5-1.3,6.6-4V26.2c0-3.4-0.6-3.8-4.8-3.9v-1.2
					l8.4-0.8h1.2L173.2,41L173.2,41z"/>
				<path class="st0" d="M188.6,41c0,2.7,0.8,3.5,4.1,3.5v1.2h-13v-1.2c3.8,0,4.2-1,4.2-4.7V26.4c0-3.6-0.9-4-5.1-4v-1.2l8.6-0.8
					h1.2v5.4c4.6-4,6.8-5.4,8.4-5.4c1.4,0,3.3,0.8,4.5,2l-1.9,4.4c-2-1.1-4.2-2.2-5.9-2.2s-3,0.8-5.2,3L188.6,41L188.6,41z"/>
				<path class="st0" d="M206.9,30.7c-0.1,11.1,6.5,13.9,9.8,13.9s5.1-1.2,8.7-5.2v1.8c-3,3.8-5.9,5.3-10.2,5.3
					c-7.7,0-13.3-5.4-13.3-12.8s5.4-13.3,12.4-13.3c5.7,0,11,4.6,10.7,10.3L206.9,30.7L206.9,30.7z M220.3,29.5
					c0.2-5.4-3.5-7.7-6.6-7.7c-4.1,0-6.6,3.1-6.8,7.7H220.3z"/>
				<path class="st0" d="M25.4,55.5c-1.5-5.6-4.5-8.1-9.7-8.1c-7.2,0-11.1,5.8-11.1,13.5c0,9,4.7,14.9,11.4,14.9
					c4.7,0,8.2-2.2,10.4-6.6l0.8,0.7c-2,4.8-6.7,7.7-12.5,7.7C7.5,77.7,0,72.7,0,62.8s6.5-16.5,15.4-16.5c3.8,0,6.6,1.2,8.3,1.2
					c0.8,0,1.3-0.3,1.6-0.9h0.8v8.9L25.4,55.5L25.4,55.5z"/>
				<path class="st0" d="M39.2,77.5c-5.8,0-10.1-4.2-10.1-9.8s4.3-9.8,10.1-9.8s10.1,4.2,10.1,9.8S45,77.5,39.2,77.5z M39.2,59
					c-3.9,0-6.3,3.4-6.3,8.8c0,4.8,2,8.7,6.3,8.7s6.3-4.2,6.3-8.7S43.5,59,39.2,59z"/>
				<path class="st0" d="M70.7,72.9c0,2.4,0.5,3.1,3.1,3.1v0.9H64V76c2.5,0,3.2-0.6,3.2-2.3v-9.7c0-3-2.1-4.2-4.1-4.2
					c-1.8,0-3.4,1.2-5.3,3.6v9c0,2.8,0.4,3.6,3.1,3.6v0.9h-9.8V76c2.5,0,3.1-0.2,3.1-3.6V62.1c0-2.2-0.6-2.7-3.1-2.7v-0.9l5.7-0.6
					h0.9v3.7c2.2-2.5,4.3-3.7,6.7-3.7c3.1,0,6.3,2.2,6.3,6.6V72.9L70.7,72.9z"/>
				<path class="st0" d="M86,63.6c-0.4-3.1-2.4-4.6-4.6-4.6c-1.8,0-3.1,1-3.1,2.5c0,4.7,9.7,3.4,9.7,10.3c0,3.1-2.7,5.7-5.8,5.7
					c-2,0-3.8-1.4-4.7-1.4c-0.7,0-1.2,0.6-1.2,1.2h-0.9v-6.3h0.9c0.8,3.9,3.7,5.4,5.9,5.4c1.8,0,3.2-1.4,3.2-3.2
					c0-5.2-9.8-3.8-9.8-10c0-2.9,2.6-5.3,5.6-5.3c1.9,0,2.5,0.9,3.8,0.9c0.5,0,0.8-0.3,1.1-0.9H87v5.7C87,63.6,86,63.6,86,63.6z"/>
				<path class="st0" d="M93.7,65.6c-0.1,8.3,4.8,10.4,7.4,10.4s3.9-0.9,6.5-3.9v1.3c-2.2,2.9-4.4,4-7.6,4c-5.8,0-10-4-10-9.6
					s4.1-10,9.3-10c4.3,0,8.2,3.5,8,7.7C107.3,65.6,93.7,65.6,93.7,65.6z M103.8,64.8c0.2-4.1-2.6-5.7-5-5.7c-3.1,0-4.9,2.3-5.1,5.7
					H103.8L103.8,64.8z"/>
				<path class="st0" d="M116.5,73.4c0,2,0.6,2.6,3.1,2.6v0.9h-9.8V76c2.8,0,3.1-0.7,3.1-3.6V62.4c0-2.7-0.7-3-3.8-3v-0.9l6.5-0.6
					h0.9v4c3.4-3,5.1-4,6.3-4c1,0,2.4,0.6,3.4,1.5l-1.4,3.3c-1.5-0.8-3.1-1.6-4.4-1.6s-2.2,0.6-3.9,2.2
					C116.5,63.3,116.5,73.4,116.5,73.4z"/>
				<path class="st0" d="M138.5,72.4l3.6-9.3c0.9-2.4,0.9-3.5-1.8-3.7v-0.9h6.8v0.9c-2.1,0.2-2.7,0.7-3.6,2.7l-5.9,15.3h-0.9
					l-5.9-14.5c-1.2-3-1.7-3.3-3.9-3.4v-0.9h8.9v0.9c-1.8,0.2-2.2,1.2-1.4,3.2L138.5,72.4L138.5,72.4z"/>
				<path class="st0" d="M183.9,72.9c0,2.4,0.5,3.1,3.1,3.1v0.9h-9.9V76c2.5,0,3.2-0.6,3.2-2.3v-9.7c0-3-2.1-4.2-4.1-4.2
					c-1.8,0-3.4,1.2-5.3,3.6v9c0,2.8,0.4,3.6,3.1,3.6v0.9h-9.8V76c2.4,0,3.1-0.2,3.1-3.6V62.1c0-2.2-0.6-2.7-3.1-2.7v-0.9l5.7-0.6
					h0.9v3.7c2.2-2.5,4.3-3.7,6.7-3.7c3.1,0,6.3,2.2,6.3,6.6V72.9L183.9,72.9z"/>
				<path class="st0" d="M204.4,64.4h-0.9c-0.8-3.3-3.1-5.5-6.2-5.5c-3.6,0-6.2,3.1-6.2,7.7c0,5.1,3.2,9.3,6.9,9.3
					c2.2,0,5-1.2,6.9-3.9v1.4c-2,2.7-4.8,4.1-8.1,4.1c-5.5,0-9.3-3.8-9.3-9.3s4.3-10.2,9.6-10.2c2.8,0,4.3,1,5.2,1
					c0.5,0,0.9-0.4,1.2-1h0.9C204.4,57.9,204.4,64.4,204.4,64.4z"/>
				<path class="st0" d="M217.7,72.6l3.2-9.8c0.7-2.2,0.6-3.4-1.5-3.5v-0.9h6.5v0.9c-2,0-3.2,1.2-4.2,4.3l-7.4,21.8
					c-1.5,4.3-3.9,6.7-6.1,6.7c-0.8,0-1.4-0.2-2.3-0.8l1.2-3.2c0.7,0.3,1.1,0.4,1.8,0.4c2.2,0,3.6-1.3,4.7-4.5l2.4-6.7l-6.6-15.3
					c-0.9-2.1-1.6-2.7-3.8-2.8v-0.9h8.9v0.9c-1.4,0.2-2,1.2-1.3,2.8L217.7,72.6L217.7,72.6z"/>
				<path class="st0" d="M123.8,40.3V29.4c0-6.7-4.8-9.1-8.9-9.1c-4.5,0-8.1,3-9.1,7.6l1.3,0.4c1.1-3.6,3.8-5.3,6.6-5.3
					c3.5,0,5.5,2.5,5.5,6v1.8c-4,2.4-13.7,2.1-13.7,9.1c0,3.6,3.2,6.5,7,6.5c2.6,0,4.5-1,6.9-3.7h0v3h8.7v-1.2
					C124.5,44.6,123.8,43.6,123.8,40.3L123.8,40.3z M119,40.7c-1,2.1-3.6,3.1-5.1,3.1c-2,0-3.8-2-3.8-4.5c0-5,4.2-4.9,8.8-7
					L119,40.7L119,40.7z"/>
				<path class="st0" d="M160.5,72.9v-8.1c0-5-3.6-6.7-6.6-6.7c-3.3,0-6,2.2-6.8,5.6l0.9,0.3c0.8-2.6,2.8-3.9,4.9-3.9
					c2.6,0,4.1,1.9,4.1,4.4v1.3c-3,1.8-10.1,1.6-10.1,6.8c0,2.7,2.4,4.8,5.2,4.8c1.9,0,3.3-0.8,5.1-2.7l0,0v2.2h6.4V76
					C161,76,160.5,75.2,160.5,72.9L160.5,72.9z M157,73.1c-0.7,1.6-2.7,2.3-3.8,2.3c-1.5,0-2.8-1.5-2.8-3.4c0-3.7,3.1-3.7,6.6-5.2
					V73.1z"/>
			</g>
		</g>
		<path class="st0" d="M314.7,8.4c-2.4,0-4.1-1.7-4.1-4.2s1.7-4.2,4.1-4.2s4.1,1.7,4.1,4.2S317.1,8.4,314.7,8.4L314.7,8.4z
			 M314.8,0.5c-2,0-3.5,1.3-3.5,3.7s1.6,3.7,3.5,3.7s3.5-1.3,3.5-3.7S316.7,0.5,314.8,0.5z M315.7,6.4l-1.2-1.8h-0.3v1.8h-1V1.8h1.6
			c1.1,0,1.7,0.5,1.7,1.4c0,0.7-0.4,1.1-0.9,1.3l1.3,1.9H315.7L315.7,6.4z M314.7,2.6h-0.5v1.3h0.5c0.5,0,0.8-0.2,0.8-0.7
			C315.4,2.8,315.2,2.6,314.7,2.6L314.7,2.6z"/>
	</g>
</g>
</svg>
